<?xml version="1.0"?>
<!DOCTYPE svg PUBLIC "-//W3C//DTD SVG 1.1//EN" "http://www.w3.org/Graphics/SVG/1.1/DTD/svg11.dtd">
<svg width="81.34619910980214mm" height="66.09502351195691mm" viewBox="0 0 81.34619910980214 66.09502351195691" xmlns="http://www.w3.org/2000/svg" version="1.1">
<g id="Body" transform="translate(40.796368,50.797512) scale(1,-1)">
<path id="Body_f0000"  d="M -33.46640106136302 50.0 L -35.4964786985977 50.0 L -35.4964786985977 50.0 L -33.46640106136302 50.0 L -33.46640106136302 50.0 Z " stroke="#191919" stroke-width="0.35 px" style="stroke-width:0.35;stroke-miterlimit:4;stroke-dasharray:none;fill:#1a619f;fill-opacity:1.0;fill-rule: evenodd "/>
<path id="Body_f0001"  d="M -35.4964786985977 50.0 L -33.46640106136302 50.0 A 4 4 0 0 0 -32.5301 49.8889A 34 34 0 1 1 34 40L 35.77708763999664 40.0 A 4 4 0 0 0 39.7523 35.5556A 40 40 0 1 0 -39.4405 46.6667A 4 4 0 0 0 -35.4965 50Z " stroke="#191919" stroke-width="0.35 px" style="stroke-width:0.35;stroke-miterlimit:4;stroke-dasharray:none;fill:#1a619f;fill-opacity:1.0;fill-rule: evenodd "/>
<path id="Body_f0002"  d="M -35.4964786985977 50.0 A 4 4 0 0 1 -39.4405 46.6667L -39.44053188733078 46.66666666666667 A 4 4 0 0 0 -35.4965 50L -35.4964786985977 50.0 Z " stroke="#191919" stroke-width="0.35 px" style="stroke-width:0.35;stroke-miterlimit:4;stroke-dasharray:none;fill:#1a619f;fill-opacity:1.0;fill-rule: evenodd "/>
<path id="Body_f0003"  d="M -33.46640106136302 50.0 A 4 4 0 0 0 -32.5301 49.8889Q -30.8080023444858 49.35023851525 -30.142151608501262 48.224716965177436 Q -29.23052287596076 46.7113263286536 -29.52917740741202 45.294117645234905 L -29.529177407085022 45.29411764705882 Q -29.230522875960567 46.711326328652675 -30.142151608501266 48.224716965177436 Q -30.808002344485935 49.35023851525007 -32.53013962501544 49.88888345451601 A 4 4 0 0 1 -33.4664 50L -33.46640106136302 50.0 Z " stroke="#191919" stroke-width="0.35 px" style="stroke-width:0.35;stroke-miterlimit:4;stroke-dasharray:none;fill:#1a619f;fill-opacity:1.0;fill-rule: evenodd "/>
<path id="Body_f0004"  d="M 39.75231959999626 35.55555555555557 A 40 40 0 1 0 -39.4405 46.6667A 4 4 0 0 0 -35.4965 50L -33.46640106136302 50.0 A 4 4 0 0 0 -32.5301 49.8889A 34 34 0 1 1 34 40L 35.77708763999664 40.0 A 4 4 0 0 0 39.7523 35.5556Z " stroke="#191919" stroke-width="0.35 px" style="stroke-width:0.35;stroke-miterlimit:4;stroke-dasharray:none;fill:#1a619f;fill-opacity:1.0;fill-rule: evenodd "/>
<path id="Body_f0005"  d="M 39.75231959999626 35.55555555555557 A 40 40 0 1 0 -39.4405 46.6667L -39.44053188733078 46.66666666666667 A 40 40 0 1 1 39.7523 35.5556L 39.75231959999626 35.555555555555564 Z M 7.0 0.617262664969567 C 6.999529527212106 0.6500932803335537 5.383072631150845 0.2148140008938303 1.527002689775848 0.029157342064736205 C -1.028102470135554 -0.08401617342687014 -3.7547349407082704 0.1390920032502954 -5.067530875070159 0.3222968050038167 C -6.374570053062242 0.509246389640795 -7.01872642803885 0.6075683429627116 -7.0 0.6172626649695658 C -6.999174092793183 0.6500826731899894 -5.384822124938371 0.21499840868134987 -1.5270026897758546 0.02915734206473443 C 1.0281026190415834 -0.08401618906020358 3.7547354238731936 0.13909205749116682 5.06753087507013 0.32229680500380153 C 6.374634422923871 0.5092574218929674 7.01879079790049 0.6075793752148866 6.999999999999988 0.6172626649695587 Z " stroke="#191919" stroke-width="0.35 px" style="stroke-width:0.35;stroke-miterlimit:4;stroke-dasharray:none;fill:#1a619f;fill-opacity:1.0;fill-rule: evenodd "/>
<path id="Body_f0006"  d="M 29.79166414611906 36.470588235294116 C 30.000795111969648 37.892365793083705 30.90936654790369 39.795390274326806 33.76388603226827 40.00000000000001 Q 33.81153094068304 40.0 33.99999999999999 40.0 A 34 34 0 1 0 -32.5301 49.8889Q -30.8080023444858 49.35023851525 -30.142151608501262 48.224716965177436 Q -29.23052287596076 46.7113263286536 -29.52917740741202 45.294117645234905 A 30 30 0 1 1 29.7917 36.4706Z " stroke="#191919" stroke-width="0.35 px" style="stroke-width:0.35;stroke-miterlimit:4;stroke-dasharray:none;fill:#1a619f;fill-opacity:1.0;fill-rule: evenodd "/>
<path id="Body_f0007"  d="M 39.75231959999626 35.55555555555557 A 4 4 0 0 1 35.7771 40L 35.77708763999664 40.0 A 4 4 0 0 0 39.7523 35.5556L 39.75231959999626 35.555555555555564 Z " stroke="#191919" stroke-width="0.35 px" style="stroke-width:0.35;stroke-miterlimit:4;stroke-dasharray:none;fill:#1a619f;fill-opacity:1.0;fill-rule: evenodd "/>
<path id="Body_f0008"  d="M 35.77708763999664 40.0 L 34.0 40.0 Q 33.81153094068304 40.0 33.76388603226826 40.0 L 33.76388603226827 40.0 Q 33.81153094068304 40.0 33.99999999999999 40.0 L 35.77708763999664 40.0 L 35.77708763999664 40.0 Z " stroke="#191919" stroke-width="0.35 px" style="stroke-width:0.35;stroke-miterlimit:4;stroke-dasharray:none;fill:#1a619f;fill-opacity:1.0;fill-rule: evenodd "/>
<path id="Body_f0009"  d="M -29.529177407085022 45.29411764705882 L -29.529177407085022 45.29411764705882 A 30 30 0 1 1 29.7917 36.4706L 29.791664146119057 36.470588235294116 A 30 30 0 1 0 -29.5292 45.2941Z " stroke="#191919" stroke-width="0.35 px" style="stroke-width:0.35;stroke-miterlimit:4;stroke-dasharray:none;fill:#1a619f;fill-opacity:1.0;fill-rule: evenodd "/>
<path id="Body_f0010"  d="M -32.53013962501544 49.88888345451602 A 34 34 0 1 1 34 40Q 33.81153094068304 40.0 33.76388603226826 40.0 C 30.90936654790394 39.7953902743272 30.000795111970383 37.892365793084515 29.791664146306722 36.47058823687821 A 30 30 0 1 0 -29.5292 45.2941Q -29.230522875960567 46.711326328652675 -30.142151608501266 48.224716965177436 Q -30.808002344485935 49.35023851525007 -32.53013962501544 49.88888345451601 Z " stroke="#191919" stroke-width="0.35 px" style="stroke-width:0.35;stroke-miterlimit:4;stroke-dasharray:none;fill:#1a619f;fill-opacity:1.0;fill-rule: evenodd "/>
<path id="Body_f0011"  d="M 7.0 0.617262664969567 C 6.999529527212106 0.6500932803335537 5.383072631150845 0.2148140008938303 1.527002689775848 0.029157342064736205 C -1.028102470135554 -0.08401617342687014 -3.7547349407082704 0.1390920032502954 -5.067530875070159 0.3222968050038167 C -6.374570053062242 0.509246389640795 -7.01872642803885 0.6075683429627116 -7.0 0.6172626649695658 C -6.999174092793183 0.6500826731899894 -5.384822124938371 0.21499840868134987 -1.5270026897758546 0.02915734206473443 C 1.0281026190415834 -0.08401618906020358 3.7547354238731936 0.13909205749116682 5.06753087507013 0.32229680500380153 C 6.374634422923871 0.5092574218929674 7.01879079790049 0.6075793752148866 6.999999999999988 0.6172626649695587 L 7.0 -4.5 M 7.0 -4.5 L 4.286263797015736e-16 -4.5 L -7.0 -4.5 L -1.2858791391047208e-15 -4.5 L 7.0 -4.5 Z " stroke="#191919" stroke-width="0.35 px" style="stroke-width:0.35;stroke-miterlimit:4;stroke-dasharray:none;fill:#1a619f;fill-opacity:1.0;fill-rule: evenodd "/>
<path id="Body_f0012"  d="M 29.79166414611906 36.470588235294116 C 30.00079511197037 37.892365793084494 30.909366547903947 39.79539027432722 33.76388603226827 40.00000000000001 L 33.76388603226827 40.0 C 30.909366547903677 39.79539027432679 30.00079511196968 37.89236579308375 29.791664146306722 36.47058823687821 L 29.79166414611906 36.470588235294116 Z " stroke="#191919" stroke-width="0.35 px" style="stroke-width:0.35;stroke-miterlimit:4;stroke-dasharray:none;fill:#1a619f;fill-opacity:1.0;fill-rule: evenodd "/>
<path id="Body_f0013"  d="M 7.0 -4.5 M 7.0 -4.5 L 4.286263797015736e-16 -4.5 L -7.0 -4.5 L -1.2858791391047208e-15 -4.5 L 7.0 -4.5 Z M 6.0 -4.5 M 6.0 -4.5 L -2.9999999999999987 -4.5 L -3.0000000000000027 -4.5 L 6.0 -4.5 Z " stroke="#191919" stroke-width="0.35 px" style="stroke-width:0.35;stroke-miterlimit:4;stroke-dasharray:none;fill:#1a619f;fill-opacity:1.0;fill-rule: evenodd "/>
<path id="Body_f0014"  d="M 6.0 -4.5 M 6.0 -4.5 L -2.9999999999999987 -4.5 L -3.0000000000000027 -4.5 L 6.0 -4.5 L 6.0 -14.5 M 6.0 -14.5 L -2.9999999999999987 -14.5 L -3.0000000000000027 -14.5 L 6.0 -14.5 Z " stroke="#191919" stroke-width="0.35 px" style="stroke-width:0.35;stroke-miterlimit:4;stroke-dasharray:none;fill:#1a619f;fill-opacity:1.0;fill-rule: evenodd "/>
<path id="Body_f0015"  d="M 6.0 -14.5 M 6.0 -14.5 L -2.9999999999999987 -14.5 L -3.0000000000000027 -14.5 L 6.0 -14.5 Z M 2.6 -14.5 M 2.6 -14.5 L 2.6 -14.5 Z " stroke="#191919" stroke-width="0.35 px" style="stroke-width:0.35;stroke-miterlimit:4;stroke-dasharray:none;fill:#1a619f;fill-opacity:1.0;fill-rule: evenodd "/>
<path id="Body_f0016"  d="M 2.6 -14.5 M 2.6 -14.5 L 2.6 -14.5 L 2.6 -4.5 M 2.5999999999999996 -4.5 L 1.5329709716755886 -4.5 M 1.5329709716755884 -4.5 L -1.5329709716755897 -4.5 M -1.5329709716755897 -4.5 L -1.5329709716760342 -4.5 M -1.5329709716760342 -4.5 L 1.5329709716760318 -4.5 M 1.5329709716760314 -4.5 L 2.5999999999999996 -4.5 Z " stroke="#191919" stroke-width="0.35 px" style="stroke-width:0.35;stroke-miterlimit:4;stroke-dasharray:none;fill:#1a619f;fill-opacity:1.0;fill-rule: evenodd "/>
<path id="Body_f0017"  d="M 1.5329709716755875 -4.5 M 1.5329709716755875 -4.5 L 2.5999999999999996 -4.5 M 2.5999999999999996 -4.5 L 1.532970971676032 -4.5 L 1.532970971676033 0.499999999999999 M 1.5329709716760314 0.5 L 1.5329709716755886 0.5 L 1.5329709716755886 -4.499999999999999 Z " stroke="#191919" stroke-width="0.35 px" style="stroke-width:0.35;stroke-miterlimit:4;stroke-dasharray:none;fill:#1a619f;fill-opacity:1.0;fill-rule: evenodd "/>
<path id="Body_f0018"  d="M 1.532970971675589 -4.499999999999999 M 1.5329709716755884 -4.5 L -1.5329709716755897 -4.5 L 1.532970971675589 -4.499999999999999 Z " stroke="#191919" stroke-width="0.35 px" style="stroke-width:0.35;stroke-miterlimit:4;stroke-dasharray:none;fill:#1a619f;fill-opacity:1.0;fill-rule: evenodd "/>
<path id="Body_f0019"  d="M -1.5329709716760338 -4.5 M -1.5329709716760338 -4.5 L -1.5329709716755904 -4.5 L -1.53297097167559 0.500000000000001 M -1.5329709716755897 0.5 L -1.5329709716760342 0.5 L -1.5329709716760342 -4.500000000000001 Z " stroke="#191919" stroke-width="0.35 px" style="stroke-width:0.35;stroke-miterlimit:4;stroke-dasharray:none;fill:#1a619f;fill-opacity:1.0;fill-rule: evenodd "/>
<path id="Body_f0020"  d="M -1.532970971676034 -4.500000000000001 L 1.532970971676033 -4.500000000000001 M 1.5329709716760322 -4.5 L -1.5329709716760338 -4.5 Z " stroke="#191919" stroke-width="0.35 px" style="stroke-width:0.35;stroke-miterlimit:4;stroke-dasharray:none;fill:#1a619f;fill-opacity:1.0;fill-rule: evenodd "/>
<path id="Body_f0021"  d="M 1.532970971676033 -4.5 L -1.5329709716760342 -4.5 L -1.532970971676034 0.499999999999999 L 1.532970971676033 0.499999999999999 L 1.5329709716760331 -4.500000000000001 Z " stroke="#191919" stroke-width="0.35 px" style="stroke-width:0.35;stroke-miterlimit:4;stroke-dasharray:none;fill:#1a619f;fill-opacity:1.0;fill-rule: evenodd "/>
<path id="Body_f0022"  d="M -1.53297097167559 -4.499999999999999 L -1.53297097167559 0.500000000000001 L 1.532970971675589 0.500000000000001 L 1.5329709716755886 -4.499999999999999 L -1.5329709716755897 -4.5 Z " stroke="#191919" stroke-width="0.35 px" style="stroke-width:0.35;stroke-miterlimit:4;stroke-dasharray:none;fill:#1a619f;fill-opacity:1.0;fill-rule: evenodd "/>
<path id="Body_f0023"  d="M -1.532970971676034 0.499999999999999 L 1.532970971676033 0.499999999999999 M 1.5329709716760314 0.5 L 1.5329709716755886 0.5 L -1.5329709716755897 0.5 M -1.5329709716755897 0.5 L -1.5329709716760342 0.5 Z " stroke="#191919" stroke-width="0.35 px" style="stroke-width:0.35;stroke-miterlimit:4;stroke-dasharray:none;fill:#1a619f;fill-opacity:1.0;fill-rule: evenodd "/>
<title>b'fabrikarium-20191016-fourche-joystick_body'</title>
</g>
</svg>